<?xml version="1.0" standalone="no"?>
<!DOCTYPE svg PUBLIC "-//W3C//DTD SVG 20010904//EN"
 "http://www.w3.org/TR/2001/REC-SVG-20010904/DTD/svg10.dtd">
<svg version="1.0" xmlns="http://www.w3.org/2000/svg"
 width="456.000000pt" height="580.000000pt" viewBox="0 0 456.000000 580.000000"
 preserveAspectRatio="xMidYMid meet">

<g transform="translate(0.000000,580.000000) scale(0.100000,-0.100000)"
fill="#000000" stroke="none">
<path d="M7 5786 c-7 -19 1 -26 32 -26 26 0 103 -54 128 -90 15 -22 43 -27 43
-8 0 6 -9 31 -21 55 -19 40 -24 43 -57 41 -27 -2 -38 3 -50 20 -16 25 -67 30
-75 8z"/>
<path d="M250 5786 c0 -15 69 -61 78 -52 2 3 -1 19 -8 36 -10 24 -19 30 -41
30 -18 0 -29 -5 -29 -14z"/>
<path d="M490 5792 c0 -11 44 -42 60 -42 6 0 10 10 8 23 -2 17 -11 23 -35 25
-18 2 -33 -1 -33 -6z"/>
<path d="M750 5792 c0 -13 23 -32 40 -32 8 0 21 9 28 20 11 19 10 20 -28 20
-22 0 -40 -4 -40 -8z"/>
<path d="M873 5788 c20 -7 35 -7 50 0 18 9 14 11 -28 11 -46 -1 -48 -1 -22
-11z"/>
<path d="M1009 5786 c7 -8 23 -17 36 -20 25 -6 42 -43 32 -70 -6 -16 12 -26
48 -26 17 0 29 -13 51 -55 16 -30 32 -55 35 -55 9 0 49 -36 49 -44 0 -4 14
-21 30 -38 17 -16 37 -43 45 -59 9 -16 25 -33 36 -40 11 -6 27 -26 35 -44 7
-18 23 -36 33 -40 11 -3 22 -14 26 -24 3 -9 27 -41 54 -71 34 -37 53 -51 65
-47 17 7 23 57 7 57 -21 0 -42 33 -36 57 5 20 1 24 -24 29 -32 7 -46 30 -35
58 5 12 -2 19 -24 27 -31 11 -47 33 -36 51 10 16 68 37 79 28 15 -12 58 30 83
81 12 25 22 48 22 51 0 2 -18 5 -40 6 -38 2 -40 0 -34 -22 11 -44 -4 -67 -39
-64 -27 2 -33 -1 -35 -19 -6 -44 -112 -23 -112 21 0 14 21 33 59 54 20 12 25
12 33 0 7 -10 10 -10 18 3 5 9 21 20 35 23 20 5 24 11 20 29 -5 17 4 33 32 63
36 39 40 41 82 35 24 -3 48 -13 54 -22 16 -26 1 -49 -33 -49 -25 0 -30 -4 -30
-24 0 -22 3 -23 58 -22 55 1 57 0 60 -26 2 -16 -1 -28 -7 -28 -26 0 -8 -29 24
-40 38 -13 45 -33 19 -61 -18 -20 -11 -39 14 -39 9 0 24 -5 32 -10 13 -8 13
-13 2 -31 -12 -18 -11 -24 7 -43 12 -12 21 -29 21 -38 0 -8 9 -27 20 -41 11
-14 20 -32 20 -40 0 -8 6 -20 14 -26 8 -7 24 -31 36 -54 23 -44 77 -107 93
-107 12 0 -12 108 -34 152 -5 10 -9 28 -9 42 0 13 -7 29 -15 36 -8 7 -15 24
-15 39 0 14 -11 36 -24 48 -16 16 -22 30 -19 48 4 18 0 27 -13 32 -26 9 -34
23 -34 60 0 26 -6 36 -30 48 -32 17 -36 25 -19 42 17 17 2 46 -34 64 -27 13
-32 21 -33 53 -1 26 -8 42 -23 53 -12 8 -26 26 -31 39 -8 19 -17 24 -45 24
-24 0 -35 -5 -35 -15 0 -8 -7 -15 -15 -15 -9 0 -18 7 -21 15 -4 8 -14 15 -23
15 -12 0 -16 -9 -16 -37 0 -37 -1 -38 -37 -37 -45 1 -68 18 -68 50 0 19 -5 24
-26 24 -14 0 -23 -4 -19 -10 12 -20 -6 -51 -28 -48 -17 2 -22 10 -22 31 1 25
-2 27 -39 27 l-39 0 22 -24 c34 -36 21 -66 -28 -66 -23 0 -44 7 -54 18 -14 15
-14 19 2 38 9 11 23 23 31 27 8 3 -45 6 -119 6 -113 1 -132 -1 -122 -13z m462
-96 c25 -14 24 -46 -1 -60 -26 -14 -36 -7 -44 26 -5 18 -3 30 6 35 16 11 16
11 39 -1z m-76 -40 c8 -48 -6 -70 -42 -70 -69 0 -83 46 -26 85 51 34 60 32 68
-15z"/>
<path d="M1820 5781 c0 -14 10 -21 33 -26 62 -14 88 -62 47 -87 -27 -17 -25
-28 5 -28 14 0 34 -9 45 -20 17 -17 18 -24 9 -42 -10 -18 -7 -24 21 -46 25
-19 30 -30 26 -48 -4 -16 0 -30 15 -45 14 -14 19 -28 15 -43 -4 -16 1 -29 14
-41 11 -10 20 -26 20 -36 0 -9 6 -30 14 -46 8 -15 22 -53 32 -83 9 -30 20 -59
24 -65 4 -5 10 -35 14 -66 3 -31 13 -75 21 -99 8 -23 15 -55 15 -70 0 -24 -5
-29 -43 -38 -23 -6 -63 -26 -87 -45 -50 -37 -72 -47 -250 -111 -137 -49 -214
-80 -303 -120 -32 -14 -63 -26 -70 -26 -7 0 -38 -12 -68 -26 -29 -14 -63 -29
-74 -33 -11 -5 -57 -27 -103 -50 -46 -22 -89 -41 -96 -41 -7 0 -21 -9 -31 -20
-16 -18 -17 -21 -1 -44 9 -15 52 -42 99 -64 45 -22 111 -53 147 -70 36 -17
117 -60 180 -95 63 -36 135 -71 160 -78 56 -16 50 -11 60 -54 6 -28 4 -47 -11
-78 -10 -23 -19 -54 -19 -69 0 -33 -9 -35 -52 -8 -18 11 -41 20 -50 20 -9 0
-23 6 -30 13 -7 7 -31 20 -53 29 -22 9 -78 37 -125 62 -231 123 -560 280 -600
286 -25 4 -65 4 -90 0 -64 -12 -183 -54 -238 -85 -49 -28 -281 -115 -304 -115
-8 0 -30 21 -48 46 l-35 45 -7 -29 c-4 -16 -17 -37 -28 -47 -20 -18 -20 -29
-20 -559 0 -420 3 -537 12 -528 17 17 53 15 68 -4 8 -8 16 -31 19 -50 l6 -36
30 41 c17 22 35 43 42 45 7 3 33 -7 58 -21 37 -20 55 -24 91 -20 24 2 44 1 44
-3 0 -9 -26 -31 -53 -45 -11 -5 -24 -24 -29 -41 -5 -18 -18 -35 -33 -42 -27
-13 -57 -3 -116 39 -26 18 -26 18 -49 -6 -13 -14 -38 -30 -57 -37 l-33 -12 0
-98 0 -98 31 0 c33 0 69 -15 69 -29 0 -5 -17 -12 -37 -16 -59 -11 -63 -18 -63
-115 l0 -87 43 -5 c60 -7 101 -29 105 -55 3 -17 -3 -24 -22 -29 -15 -3 -32 -1
-39 5 -10 7 -24 7 -50 -1 l-37 -11 0 -93 c0 -78 3 -95 17 -103 17 -10 17 -10
0 -11 -16 0 -17 -24 -15 -407 l3 -408 45 0 45 0 7 63 c15 135 67 284 158 455
114 213 154 275 185 283 59 15 398 -95 514 -167 69 -42 76 -57 51 -114 -21
-48 -21 -48 31 -59 21 -5 26 -1 35 26 16 57 49 55 217 -11 34 -13 94 -15 101
-2 8 12 -12 32 -83 86 -57 42 -81 51 -138 54 -17 1 -16 32 1 56 10 14 25 18
66 16 63 -2 74 -7 170 -83 41 -33 101 -73 133 -89 50 -26 62 -28 95 -20 20 6
75 17 122 25 47 9 119 23 160 31 41 8 89 17 105 19 17 3 62 10 101 17 39 7 78
10 87 6 9 -3 21 -24 27 -46 6 -23 15 -41 20 -41 5 0 4 14 -2 33 -5 17 -12 40
-15 51 -10 30 30 15 46 -18 11 -24 11 -30 0 -37 -10 -6 -8 -9 9 -9 22 0 26 10
22 57 -2 25 2 26 165 41 55 5 114 8 130 5 17 -2 75 7 130 22 55 14 137 29 183
32 l83 6 37 -35 c20 -20 47 -41 60 -47 12 -7 36 -39 52 -71 25 -50 44 -70 115
-122 47 -34 85 -66 85 -71 0 -5 -9 -16 -21 -26 -20 -16 -20 -17 20 -13 36 4
41 2 41 -17 0 -46 39 -11 43 38 2 27 6 32 37 37 19 3 54 10 77 16 45 11 119 4
168 -16 17 -7 47 -16 68 -20 32 -6 37 -4 37 11 0 27 -104 69 -217 88 -24 4
-43 11 -43 16 0 4 -7 6 -16 2 -15 -5 -15 -3 1 20 60 91 344 178 536 164 149
-12 159 -23 229 -247 105 -336 129 -458 111 -568 -10 -63 -13 -67 -41 -52 -24
13 -181 3 -191 -12 -10 -16 -299 -12 -299 4 0 4 -17 10 -37 14 -21 4 -42 9
-48 13 -5 3 -31 6 -57 6 -29 1 -54 7 -66 18 -13 12 -21 14 -29 6 -14 -14 -199
5 -220 23 -9 7 -13 7 -13 0 0 -8 -31 -9 -97 -6 -54 3 -136 7 -183 8 -47 1 -95
6 -107 10 -15 5 -23 3 -23 -4 0 -8 -7 -9 -17 -5 -10 4 -34 8 -53 10 -19 1 -80
6 -135 10 -55 4 -104 10 -110 14 -13 8 -144 42 -172 44 -12 1 -28 8 -34 14
-16 16 20 56 97 109 49 34 218 93 314 111 19 3 54 14 78 25 49 20 66 23 57 8
-3 -5 -1 -10 4 -10 6 0 11 7 11 15 0 15 11 19 39 15 8 -1 17 3 20 8 9 14 55
27 47 13 -4 -6 -3 -11 1 -11 5 0 14 9 21 20 12 20 52 28 52 10 0 -5 -4 -10
-10 -10 -5 0 -10 -4 -10 -10 0 -5 9 -10 19 -10 11 0 26 -9 34 -21 9 -13 17
-16 22 -10 3 6 1 11 -4 11 -6 0 -11 4 -11 10 0 5 3 9 8 9 19 -3 22 3 12 22 -8
15 -8 24 0 34 25 31 -43 31 -155 0 -27 -8 -108 -21 -180 -30 -183 -22 -198
-23 -212 -12 -15 11 -205 10 -213 -2 -3 -4 -27 -11 -53 -14 -42 -6 -50 -4 -54
12 -2 10 -15 24 -28 31 -19 10 -26 27 -39 98 -19 106 -36 129 -36 49 0 -47 -3
-55 -15 -50 -9 3 -13 8 -11 11 3 3 1 11 -6 19 -8 11 -7 12 6 7 12 -4 16 0 16
15 0 20 -23 30 -33 14 -2 -5 -3 -3 -1 2 1 6 -4 24 -12 40 -13 30 -13 30 -10
-15 2 -25 7 -66 11 -92 7 -43 5 -50 -16 -68 -13 -11 -37 -26 -54 -34 -16 -7
-36 -20 -44 -30 -12 -14 -12 -18 2 -29 9 -7 17 -31 19 -57 2 -38 0 -45 -17
-49 -10 -2 -29 -10 -42 -18 -12 -8 -28 -13 -35 -10 -8 4 -6 6 5 6 27 1 20 21
-8 21 -34 0 -32 16 4 35 45 23 51 39 12 32 -29 -6 -31 -5 -21 13 5 10 15 22
21 25 6 4 9 23 7 43 -3 32 0 36 32 47 18 6 36 17 38 23 3 10 -3 10 -25 1 -15
-7 -41 -17 -58 -24 -16 -7 -59 -12 -95 -11 -53 1 -68 -2 -79 -17 -7 -10 -19
-16 -27 -13 -8 3 -14 1 -14 -4 0 -5 -10 -10 -22 -12 -13 -2 -22 -9 -21 -16 2
-6 -3 -12 -10 -12 -15 0 -39 15 -38 24 1 3 -2 6 -6 5 -3 0 -10 6 -15 15 -11
20 -38 21 -38 1 0 -8 -8 -15 -17 -15 -17 -1 -17 -1 0 -14 18 -14 23 -36 9 -36
-15 0 -44 38 -37 49 7 12 -24 15 -41 3 -6 -4 -13 -15 -17 -24 -4 -10 -12 -15
-21 -12 -8 3 -23 1 -33 -4 -13 -8 6 -12 75 -17 66 -6 92 -11 92 -21 0 -30 -65
-39 -92 -12 -24 24 -62 24 -56 0 9 -34 -105 -8 -154 36 -22 19 -23 10 -2 -30
l16 -30 -31 18 c-17 10 -31 23 -31 29 0 5 -5 2 -11 -8 -11 -18 -39 -24 -39 -7
0 6 -9 1 -20 -10 -26 -26 -50 -26 -50 1 0 19 -4 21 -31 15 -17 -3 -35 -6 -40
-6 -5 0 -6 -7 -3 -15 5 -11 -2 -13 -31 -10 -20 3 -42 8 -48 12 -6 4 -8 -3 -3
-21 4 -18 3 -25 -4 -21 -5 3 -10 13 -10 21 0 8 -7 14 -15 14 -8 0 -12 -6 -9
-14 7 -19 -41 -27 -63 -10 -15 10 -21 10 -36 -4 -16 -14 -19 -14 -33 6 -8 12
-20 22 -26 22 -6 0 -3 -9 8 -21 18 -20 18 -21 -6 -40 l-25 -20 33 16 c36 17
62 8 62 -22 0 -12 3 -13 13 -4 11 8 19 5 38 -16 13 -14 18 -23 12 -19 -7 4
-13 2 -13 -3 0 -6 6 -11 14 -11 8 0 16 -6 19 -14 7 -16 -19 -56 -36 -56 -15 1
-62 49 -70 73 -4 9 -11 17 -17 17 -6 0 -9 -4 -5 -9 3 -5 1 -13 -5 -16 -8 -5
-6 -15 6 -32 12 -19 13 -27 4 -33 -9 -6 -9 -9 1 -14 11 -5 11 -7 1 -12 -6 -3
-10 -10 -6 -15 3 -5 -5 -9 -18 -8 -13 0 -17 3 -10 6 17 7 15 23 -3 23 -8 0
-15 -4 -15 -9 0 -4 -65 -9 -145 -10 -122 -1 -145 1 -145 13 0 25 -16 27 -44 5
-31 -25 -32 -29 -6 -57 21 -22 13 -36 -15 -26 -10 4 -21 1 -26 -7 -7 -12 -14
-11 -40 4 -23 13 -35 15 -44 7 -7 -6 -25 -8 -41 -4 -23 6 -26 4 -21 -10 5 -12
0 -16 -22 -16 -33 0 -44 -9 -31 -25 8 -9 4 -14 -14 -19 -27 -7 -56 1 -56 15 0
5 -10 9 -22 9 -17 0 -19 3 -9 9 9 6 0 10 -28 13 -40 3 -41 3 -41 -29 0 -17 5
-35 10 -38 6 -3 10 -13 10 -22 0 -12 -8 -14 -45 -9 -34 6 -45 4 -45 -6 0 -9
14 -12 54 -10 47 3 54 1 59 -17 3 -14 -1 -22 -13 -26 -12 -4 -16 -13 -13 -29
4 -18 0 -26 -17 -31 -21 -7 -21 -7 -3 -20 35 -24 129 -37 320 -42 235 -7 539
11 1058 62 83 8 189 15 237 15 48 0 89 4 92 9 3 5 59 14 123 20 65 6 154 16
198 21 186 22 280 23 356 5 41 -9 79 -24 85 -31 6 -8 14 -11 17 -8 3 3 38 0
78 -7 54 -9 67 -15 53 -21 -14 -6 -10 -7 12 -4 31 5 200 -21 294 -44 25 -6 95
-20 155 -31 129 -23 145 -27 145 -40 0 -5 12 -9 28 -8 15 1 61 -4 102 -10 41
-7 100 -14 130 -16 30 -3 66 -7 80 -10 133 -26 606 -61 634 -47 4 3 2 8 -5 13
-18 11 33 23 69 15 26 -5 26 -5 4 6 l-23 11 33 34 c30 31 33 39 33 96 0 54 -3
63 -21 71 -18 8 -21 17 -19 50 2 23 4 51 4 64 1 21 3 22 71 16 l70 -7 0 677
c0 676 0 676 -21 676 -11 0 -39 -4 -62 -10 -23 -5 -85 -19 -137 -30 -52 -12
-117 -28 -144 -37 -49 -16 -50 -16 -69 8 -18 22 -20 22 -32 6 -15 -21 -31 -22
-39 -1 -9 24 -7 30 12 31 40 3 320 76 361 94 36 16 41 21 31 34 -21 25 -47 26
-137 4 -93 -22 -125 -25 -238 -16 -68 5 -71 7 -98 45 -21 28 -31 57 -37 107
-5 42 -16 79 -29 96 -12 16 -21 33 -21 39 0 10 -59 120 -65 120 -1 0 10 -44
26 -97 30 -107 52 -234 43 -255 -3 -7 -27 -27 -54 -45 l-48 -32 -7 42 c-4 23
-9 50 -11 59 -3 11 10 26 41 48 52 36 62 62 11 31 -41 -26 -48 -26 -45 -3 10
66 -45 277 -105 406 -44 94 -44 96 -24 107 14 8 23 8 31 0 15 -15 27 -14 27 3
0 17 -22 26 -48 19 -14 -3 -22 1 -26 15 -9 27 -71 74 -93 70 -13 -2 -19 5 -21
22 -4 21 -2 22 12 11 9 -8 19 -11 22 -8 13 13 -76 58 -132 67 -52 9 -63 15
-96 54 -24 28 -50 47 -71 52 -17 3 -51 16 -75 28 -35 17 -46 18 -62 8 -32 -20
-58 -13 -161 39 -36 19 -109 26 -109 12 0 -5 9 -23 20 -40 17 -29 25 -33 64
-33 30 0 46 -5 50 -15 3 -8 16 -15 28 -15 43 0 53 -15 32 -44 -11 -14 -26 -28
-35 -31 -8 -3 -21 -22 -29 -43 l-14 -37 -8 50 c-20 123 -18 117 -41 111 -26
-6 -37 0 -60 37 -10 15 -26 27 -37 27 -11 0 -20 6 -20 14 0 8 -6 17 -12 19
-10 4 -10 7 0 14 16 12 -11 38 -49 48 -26 6 -27 6 -34 -61 -5 -52 -9 -64 -17
-50 -5 9 -7 23 -5 30 6 15 -12 96 -23 109 -5 5 -11 -5 -15 -23 -4 -17 -13 -34
-22 -37 -8 -3 -12 -12 -9 -19 3 -8 -1 -14 -8 -14 -21 0 -27 42 -11 67 16 23
21 58 8 50 -5 -3 -9 16 -9 41 l-2 46 21 -24 c16 -20 19 -21 13 -5 -4 11 -10
32 -13 47 -3 15 -11 29 -19 32 -8 3 -14 11 -14 19 0 16 -81 97 -97 97 -15 0
-47 66 -39 79 3 5 23 12 44 16 51 9 144 66 159 97 7 14 16 56 21 94 l8 69 17
-32 c18 -34 23 -58 7 -33 -17 27 -12 -22 10 -85 13 -38 20 -84 20 -132 0 -58
3 -73 15 -73 8 0 15 -5 15 -11 0 -5 4 -8 9 -5 5 3 14 34 20 69 9 52 8 73 -5
116 -13 45 -18 51 -36 45 -19 -6 -20 -3 -13 34 5 32 1 50 -19 89 -28 52 -33
77 -13 71 15 -6 46 -84 46 -121 1 -15 8 -30 15 -33 8 -3 25 -36 37 -72 19 -59
21 -73 11 -122 -6 -30 -14 -80 -18 -110 -4 -30 -11 -63 -16 -73 -9 -18 -10
-18 -23 0 -8 10 -15 32 -15 48 -1 28 -2 28 -10 8 -11 -28 -1 -160 11 -141 7
10 9 10 9 1 0 -18 76 26 123 71 21 20 45 36 53 36 19 0 94 61 94 76 0 6 9 19
20 29 11 10 20 26 20 36 0 10 5 21 10 24 6 3 10 15 10 26 0 14 -7 19 -25 19
-23 0 -25 3 -25 48 0 26 5 54 10 62 9 13 10 13 10 0 0 -13 1 -13 10 0 9 13 12
13 21 -2 5 -10 17 -18 26 -18 9 0 14 -3 10 -6 -12 -12 22 -34 52 -34 17 0 31
-5 31 -11 0 -18 114 -4 144 17 14 11 28 33 32 51 3 18 17 44 30 58 20 22 30
25 55 20 37 -8 120 11 145 33 21 19 41 33 124 90 30 20 64 45 74 55 11 9 23
17 28 17 13 0 9 48 -4 53 -8 3 -6 6 5 6 24 1 22 46 -3 78 -11 14 -20 37 -20
52 0 14 -7 39 -15 55 -19 36 -19 69 0 109 8 18 16 57 17 87 3 53 4 55 38 64
19 5 37 12 40 15 3 3 14 11 25 17 28 15 32 51 7 59 -31 9 -33 30 -7 84 14 28
24 61 24 73 0 13 2 33 6 46 6 16 3 22 -9 22 -9 0 -16 -8 -16 -19 0 -11 -14
-28 -33 -40 -36 -22 -77 -72 -77 -94 0 -20 -39 -67 -56 -67 -17 0 -19 41 -3
57 7 7 12 36 14 65 1 46 27 123 45 138 15 12 51 101 45 111 -4 6 2 17 14 25
40 28 15 68 -27 45 -13 -7 -18 -18 -15 -29 2 -10 -5 -26 -16 -36 -12 -11 -21
-30 -21 -43 0 -13 -9 -31 -20 -40 -11 -10 -20 -23 -20 -29 0 -7 -11 -26 -25
-42 -14 -17 -25 -35 -25 -40 0 -6 -10 -23 -23 -39 -13 -15 -26 -36 -30 -45 -3
-10 -15 -18 -25 -18 -18 0 -18 4 -6 83 15 96 36 167 64 214 11 19 20 47 20 63
0 19 7 33 21 40 12 7 18 17 15 26 -3 8 -9 21 -12 29 -4 9 3 19 20 26 27 13 32
25 17 48 -8 12 -14 13 -35 3 -20 -9 -26 -19 -26 -42 0 -21 -8 -34 -25 -46 -18
-12 -25 -25 -25 -50 0 -18 -5 -36 -10 -39 -5 -3 -10 -17 -10 -29 0 -13 -9 -35
-20 -49 -11 -14 -20 -32 -20 -40 0 -9 -6 -28 -14 -44 -8 -15 -26 -54 -41 -85
-15 -31 -33 -59 -41 -62 -8 -3 -14 -12 -14 -21 0 -8 -7 -15 -15 -15 -23 0 -19
80 11 195 14 55 28 114 31 130 3 17 10 36 16 43 6 8 10 29 9 47 -2 25 3 37 18
45 17 9 18 14 9 31 -14 27 -4 66 20 74 14 4 18 15 17 42 -1 31 3 39 27 51 24
12 26 17 21 51 -5 33 -3 38 19 48 14 7 31 21 37 33 10 19 8 20 -45 20 -47 0
-55 -3 -55 -19 0 -10 -9 -30 -20 -44 -13 -16 -20 -40 -20 -66 0 -29 -7 -48
-22 -63 -15 -15 -21 -32 -20 -58 2 -26 -3 -42 -18 -55 -14 -12 -18 -25 -14
-42 5 -17 0 -34 -15 -53 -11 -16 -21 -37 -21 -48 0 -10 -5 -23 -11 -29 -6 -6
-15 -28 -20 -49 -23 -90 -29 -111 -38 -154 -14 -67 -59 -158 -81 -165 -10 -3
-20 -14 -23 -23 -2 -9 -7 9 -12 42 -9 68 -1 162 22 249 16 62 18 73 29 157 3
25 12 52 20 60 7 9 11 26 7 38 -4 16 1 30 17 47 15 16 20 30 15 44 -4 14 1 31
15 50 14 20 19 38 15 54 -5 17 1 32 19 54 17 20 23 37 19 51 -5 19 -12 22 -54
22 -48 0 -49 -1 -49 -31 0 -17 -4 -38 -9 -47 -5 -10 -12 -41 -15 -71 -3 -29
-9 -58 -13 -64 -6 -11 -13 -43 -32 -147 -4 -25 -13 -56 -19 -70 -9 -22 -14
-43 -28 -120 -45 -264 -73 -350 -111 -350 -19 0 -22 7 -28 54 -8 58 30 453 45
471 10 13 25 105 34 209 2 26 9 59 16 71 8 14 10 37 6 59 -7 35 -8 36 -51 36
l-45 0 0 -52 c-1 -29 -8 -105 -16 -168 -9 -63 -18 -135 -20 -160 -6 -75 -11
-114 -17 -145 -4 -16 -9 -81 -12 -144 -4 -63 -11 -123 -16 -132 -5 -10 -8 -22
-7 -26 1 -4 -2 -23 -6 -41 -9 -39 -37 -57 -65 -42 -19 10 -20 22 -19 208 0
108 4 226 9 262 5 36 11 149 14 253 l5 187 -42 0 -43 0 -4 -173 c-2 -94 -5
-287 -6 -427 -2 -140 -7 -268 -12 -285 -18 -57 -83 -41 -83 21 0 18 -5 45 -11
61 -7 16 -13 116 -15 238 -2 115 -8 241 -13 280 -5 38 -9 79 -8 90 0 11 0 59
-1 108 l-2 87 -54 0 -55 0 14 -26 c9 -18 10 -35 4 -56 -5 -19 -4 -38 2 -49 5
-10 9 -36 9 -56 -1 -21 4 -81 10 -133 5 -52 13 -122 16 -155 3 -33 9 -76 15
-95 5 -19 9 -103 9 -186 0 -120 -3 -154 -15 -164 -21 -18 -54 -3 -61 28 -3 15
-11 41 -19 59 -8 17 -17 78 -21 135 -4 57 -13 132 -21 168 -8 36 -18 93 -23
126 -4 34 -10 66 -14 72 -3 5 -7 43 -7 83 -1 39 -7 87 -15 105 -8 18 -14 47
-14 63 0 17 -5 42 -12 56 -10 22 -17 25 -65 25 -51 0 -70 -12 -38 -24 22 -8
34 -47 22 -73 -7 -17 -5 -27 12 -49 15 -19 20 -36 16 -51 -3 -13 0 -33 6 -45
6 -11 13 -37 15 -57 6 -70 33 -207 59 -301 31 -113 37 -174 23 -258 -12 -76
-30 -80 -65 -12 -21 43 -30 74 -83 300 -13 52 -29 105 -37 117 -8 12 -12 31
-8 42 4 12 0 30 -9 43 -9 12 -16 35 -16 51 0 15 -7 41 -15 57 -9 18 -13 40 -9
56 5 18 0 34 -15 54 -11 16 -21 43 -21 60 0 17 -10 44 -22 60 -19 26 -28 30
-70 30 -56 0 -66 -22 -18 -39 31 -10 40 -40 20 -71 -7 -11 -1 -22 20 -42 27
-24 29 -30 18 -52 -10 -23 -8 -29 15 -50 30 -28 32 -36 15 -55 -11 -10 -9 -16
10 -28 16 -12 22 -25 22 -54 0 -21 5 -41 10 -44 6 -3 10 -15 10 -27 0 -11 6
-32 14 -46 38 -75 61 -178 60 -270 0 -51 -5 -97 -11 -103 -7 -7 -20 1 -42 28
-17 20 -31 43 -31 50 0 7 -4 21 -9 31 -12 21 -37 104 -46 152 -4 19 -16 54
-26 77 -10 23 -17 48 -14 55 3 8 -3 23 -15 33 -11 10 -20 28 -20 40 0 12 -9
30 -21 41 -14 13 -18 25 -14 42 5 19 -1 32 -21 53 -22 23 -26 34 -20 59 5 25
1 36 -20 57 -22 22 -25 32 -20 65 6 34 4 39 -18 48 -14 5 -30 18 -36 30 -9 17
-20 20 -70 20 -53 0 -60 -2 -60 -19z m1802 -843 c-6 -6 -15 -8 -19 -4 -4 4 -1
11 7 16 19 12 27 3 12 -12z m-774 -415 c8 -7 16 -32 19 -54 8 -55 -16 -77 -91
-81 -31 -2 -56 -7 -56 -13 -1 -5 -9 12 -20 38 -21 54 -18 73 19 102 44 35 98
39 129 8z m204 11 c60 -31 94 -79 84 -120 -5 -19 -13 -24 -40 -24 -78 0 -166
64 -151 110 16 50 54 62 107 34z m250 -6 c45 -26 81 -66 75 -82 -8 -21 -24
-20 -72 7 -38 22 -69 63 -59 79 7 12 31 10 56 -4z m-950 -71 c7 -17 9 -17 23
-3 13 12 21 13 43 4 15 -7 34 -17 42 -23 31 -24 39 -25 50 -6 9 17 8 19 -5 15
-10 -4 -15 0 -15 11 0 14 6 16 28 10 15 -3 29 -11 30 -16 2 -5 10 -9 17 -9 15
0 40 -58 50 -117 3 -23 13 -47 21 -54 8 -6 14 -17 14 -24 0 -10 -21 -12 -87
-7 -49 2 -90 8 -93 11 -28 34 -104 35 -202 4 -42 -13 -54 -13 -108 1 -34 9
-86 16 -116 16 -47 0 -57 -4 -81 -30 -14 -16 -34 -30 -43 -30 -10 0 -29 -9
-43 -20 -48 -38 -56 -29 -50 58 3 42 9 81 14 87 5 5 9 17 9 27 0 10 5 18 10
18 6 0 10 -9 10 -20 0 -11 7 -20 15 -20 8 0 15 -4 15 -10 0 -19 18 -10 58 30
26 26 49 40 65 40 14 0 31 8 36 18 9 15 12 15 21 2 5 -8 10 -12 10 -8 0 4 19
-1 43 -11 46 -20 101 -21 119 -3 7 7 21 12 33 12 30 1 62 27 48 41 -8 8 -13 8
-17 0 -10 -16 -46 -13 -46 3 0 29 71 31 82 3z m286 -260 c25 -30 19 -166 -8
-198 l-20 -24 15 37 c23 56 19 95 -15 145 -16 24 -30 46 -30 49 0 10 49 3 58
-9z m-914 -143 l-26 -27 7 24 c4 13 15 38 24 54 l16 30 3 -27 c2 -19 -5 -36
-24 -54z m530 30 c27 -10 18 -22 -19 -26 -38 -4 -45 5 -17 21 21 13 17 12 36
5z m59 -107 c29 -42 42 -55 48 -45 7 10 9 10 9 -2 0 -9 9 -33 20 -55 22 -44
14 -64 -19 -43 -11 7 -21 16 -21 20 0 5 -13 8 -30 8 -16 0 -30 3 -30 8 0 17
-47 27 -88 19 -32 -6 -48 -16 -61 -39 -12 -19 -21 -26 -26 -18 -4 6 4 28 17
48 13 20 32 57 43 82 42 101 78 105 138 17z m847 23 c0 -5 -5 -10 -11 -10 -5
0 -7 5 -4 10 3 6 8 10 11 10 2 0 4 -4 4 -10z m-1344 -133 c13 -16 24 -37 24
-48 0 -17 5 -19 34 -14 19 4 43 2 54 -4 16 -9 21 -7 25 9 5 20 23 23 65 12 23
-7 23 -7 -12 -48 -29 -35 -40 -41 -66 -38 -22 3 -33 -2 -42 -16 -7 -11 -16
-20 -21 -20 -4 0 -6 4 -2 9 3 5 1 12 -5 16 -6 3 -13 -1 -16 -10 -4 -9 -12 -14
-20 -11 -7 3 -15 0 -18 -7 -6 -14 -29 18 -33 47 -2 11 -9 26 -16 34 -9 12 -9
16 1 20 15 5 6 72 -12 85 -7 5 -5 12 9 23 15 11 21 12 24 2 2 -7 15 -26 27
-41z m648 -96 c14 -22 28 -51 32 -65 5 -23 3 -26 -18 -26 -34 0 -65 37 -73 88
-6 38 -5 42 14 42 13 0 30 -14 45 -39z m-354 -21 c0 -5 -9 -19 -20 -30 -11
-11 -20 -24 -20 -30 0 -5 -5 -10 -11 -10 -6 0 -8 7 -5 16 3 9 6 19 6 24 0 11
29 40 41 40 5 0 9 -4 9 -10z m-345 -140 c-9 -15 -25 -2 -25 21 0 19 1 19 16 5
8 -9 12 -20 9 -26z m-463 -172 c11 -9 18 -35 22 -75 4 -55 3 -64 -15 -77 -18
-12 -23 -12 -40 2 -21 19 -25 48 -7 54 8 3 5 13 -10 33 -27 33 -28 51 -4 64
23 14 35 13 54 -1z m376 -10 c53 -2 56 -24 4 -38 -22 -5 -47 -19 -57 -30 -28
-31 -38 -25 -31 21 6 35 4 40 -9 36 -8 -4 -15 -3 -15 2 0 15 14 22 40 17 14
-3 44 -7 68 -8z m-128 -93 c0 -15 -40 -30 -62 -23 -8 3 -1 11 17 21 38 20 45
21 45 2z m-130 -24 c0 -12 -69 -101 -79 -101 -4 0 -14 11 -21 25 -12 23 -11
27 9 46 12 12 34 25 49 29 37 11 42 11 42 1z m1899 -27 l31 -26 0 -151 c-1
-84 -4 -170 -9 -193 -4 -22 -3 -67 2 -102 9 -52 8 -67 -8 -101 -19 -43 -19
-48 1 -352 11 -162 -15 -228 -30 -79 -4 36 -17 121 -28 190 -17 99 -22 172
-24 350 -1 124 -6 279 -11 345 -7 78 -7 124 0 133 15 19 43 14 76 -14z m-1812
-146 c-3 -84 -10 -169 -16 -188 -5 -19 -15 -55 -22 -80 -10 -38 -13 -42 -20
-25 -6 16 -8 14 -8 -14 -1 -32 -27 -147 -38 -164 -3 -4 -11 -3 -18 3 -8 7 -20
8 -26 4 -9 -5 -10 1 -6 25 15 74 38 308 41 415 1 64 7 120 12 125 13 13 87 51
98 51 5 0 6 -63 3 -152z m1314 -33 c12 -144 6 -217 -16 -209 -8 3 -21 -6 -31
-21 -9 -14 -18 -24 -20 -22 -2 2 7 43 21 92 22 82 24 97 15 184 -6 52 -7 111
-3 130 l6 36 9 -30 c4 -16 13 -88 19 -160z m-1121 32 c0 -10 5 -15 10 -12 6 3
10 1 10 -4 0 -6 -5 -11 -11 -11 -7 0 -9 -12 -5 -32 3 -18 1 -49 -4 -68 -18
-68 -53 -165 -63 -175 -7 -7 -8 -5 -5 6 25 71 40 193 35 285 -3 56 -3 105 1
108 7 7 32 -68 32 -97z m1375 -22 c16 -117 19 -175 9 -224 -8 -39 -16 -39 -31
-1 -12 31 -33 41 -33 15 0 -8 11 -47 24 -87 14 -40 30 -103 36 -140 7 -37 19
-75 27 -85 13 -16 14 -12 10 37 -4 54 -4 54 9 23 22 -52 25 -108 9 -147 -15
-36 -46 -49 -61 -25 -4 8 -9 7 -14 -2 -16 -24 -35 72 -97 484 -15 101 -15 110
1 144 15 32 88 124 93 119 1 -1 9 -51 18 -111z m-1835 97 c0 -10 79 -34 91
-27 14 9 11 -49 -4 -69 -11 -16 -15 -16 -49 -1 -21 8 -48 15 -62 15 -13 0 -27
6 -30 13 -3 6 -4 -1 -2 -17 5 -40 -20 -78 -73 -112 -81 -50 -121 -87 -178
-167 -30 -43 -64 -84 -74 -90 -11 -7 -19 -21 -19 -33 0 -12 -13 -39 -29 -61
-16 -22 -37 -55 -46 -74 -10 -19 -23 -37 -29 -41 -34 -23 -35 11 -1 43 34 33
33 65 -2 72 -16 3 -50 11 -78 18 l-50 13 45 8 c25 5 68 11 95 14 57 7 85 27
85 61 0 14 6 23 15 23 8 0 35 31 61 70 57 87 175 214 214 232 21 9 30 20 30
36 0 34 18 62 40 62 11 0 20 5 20 10 0 6 7 10 15 10 8 0 15 -3 15 -8z m-667
-149 c-7 -3 -13 -10 -13 -16 -1 -7 -26 -28 -57 -47 -31 -19 -62 -41 -69 -48
-15 -14 -19 -5 -6 14 14 20 145 114 151 108 3 -4 0 -9 -6 -11z m2947 -79 c0
-3 -16 -24 -35 -47 -41 -47 -49 -84 -12 -49 l24 22 12 -27 c33 -73 74 -295 54
-292 -23 4 -33 -3 -33 -23 1 -22 1 -23 15 -4 29 38 15 -5 -15 -45 -34 -48 -29
-77 7 -33 l23 29 0 -48 c0 -41 -4 -52 -30 -74 -29 -24 -43 -54 -17 -37 7 5 5
2 -5 -8 -19 -17 -24 -48 -9 -48 6 0 16 9 24 21 14 19 15 20 20 2 20 -69 19
-85 -7 -112 -17 -17 -22 -31 -17 -40 11 -17 30 -6 40 22 7 17 8 18 14 4 4 -11
-2 -24 -15 -37 -24 -22 -17 -40 7 -20 19 16 18 17 40 -49 10 -31 14 -56 8 -60
-5 -3 -26 -19 -47 -35 -44 -35 -49 -31 -67 54 -7 30 -18 66 -26 79 -10 16 -12
26 -4 34 7 7 5 19 -6 41 -19 36 -22 118 -5 138 8 10 9 25 1 51 -8 29 -7 41 6
61 16 23 15 35 -14 179 -17 84 -31 183 -31 219 0 66 0 67 43 102 40 34 57 43
57 30z m-2160 -33 c0 -46 -17 -81 -39 -81 -11 0 -32 -5 -46 -12 -19 -9 -25
-19 -25 -45 0 -26 -6 -36 -25 -45 -18 -8 -28 -8 -39 1 -12 10 -14 6 -13 -21 2
-27 -3 -34 -25 -42 -23 -8 -31 -6 -43 10 -20 26 -19 0 1 -31 15 -24 15 -27
-15 -73 -17 -27 -31 -56 -31 -65 0 -8 -9 -26 -19 -39 -11 -12 -33 -39 -49 -58
-16 -19 -37 -49 -46 -67 l-16 -32 -47 16 c-27 9 -52 19 -57 23 -11 11 39 101
84 154 20 22 43 55 52 71 53 105 101 185 111 185 7 0 32 16 56 35 24 19 49 35
56 35 7 0 15 7 19 15 3 8 12 15 21 15 9 0 15 9 15 24 0 36 26 50 98 55 18 1
22 -4 22 -28z m596 -168 c9 -48 -2 -462 -15 -573 -12 -98 -49 -250 -50 -207
-1 16 -5 26 -9 23 -10 -6 -8 31 6 169 7 61 17 154 22 207 6 53 10 169 10 257
0 134 2 161 15 161 8 0 17 -14 21 -37z m-223 -208 l-7 -60 -9 42 c-5 23 -6 63
-2 90 8 47 8 47 16 18 5 -16 6 -57 2 -90z m668 12 c-10 -9 -11 -8 -5 6 3 10 9
15 12 12 3 -3 0 -11 -7 -18z m-1683 -83 c2 -11 -5 -27 -15 -35 -21 -18 -93
-41 -93 -29 0 14 28 31 46 28 12 -2 20 4 22 17 6 37 12 47 25 43 6 -3 13 -13
15 -24z m2118 -39 c7 -38 7 -56 -1 -58 -7 -3 -6 -8 1 -18 6 -8 15 -39 18 -70
7 -53 6 -56 -19 -67 -15 -7 -25 -20 -25 -32 0 -11 -4 -20 -9 -20 -28 0 -29
271 -2 304 21 25 26 20 37 -39z m-1173 -90 c-4 -82 -73 -174 -109 -144 -19 16
-18 21 11 55 14 16 38 55 53 87 15 31 31 55 37 54 5 -2 9 -25 8 -52z m2258 -2
c10 -30 50 -122 77 -175 2 -5 -7 -8 -20 -8 -12 -1 -41 -7 -63 -15 -46 -16 -55
-11 -74 42 -7 21 -20 53 -29 72 l-16 34 49 44 c27 23 52 43 56 43 4 0 13 -17
20 -37z m-2667 -9 c3 -8 2 -12 -4 -9 -6 3 -10 10 -10 16 0 14 7 11 14 -7z
m-967 -106 c24 -48 38 -212 24 -284 -18 -102 -49 -136 -103 -115 -39 15 -47
52 -37 186 9 142 22 189 57 221 30 29 42 27 59 -8z m890 10 c-3 -8 -6 -5 -6 6
-1 11 2 17 5 13 3 -3 4 -12 1 -19z m-638 -19 c-27 -39 -129 -119 -150 -119
-29 0 -42 27 -37 75 8 69 17 75 120 75 l89 0 -22 -31z m2296 -109 c3 -5 1 -10
-4 -10 -6 0 -11 5 -11 10 0 6 2 10 4 10 3 0 8 -4 11 -10z m-165 -90 c0 -5 -7
-10 -16 -10 -8 0 -12 5 -9 10 3 6 10 10 16 10 5 0 9 -4 9 -10z m-788 -80 c13
0 5 -103 -13 -165 -10 -37 -12 -38 -25 -20 -21 28 -17 94 13 205 6 25 7 25 10
3 3 -13 9 -23 15 -23z m788 10 c0 -11 -2 -20 -4 -20 -2 0 -6 9 -9 20 -3 11 -1
20 4 20 5 0 9 -9 9 -20z m747 -397 c-3 -10 -5 -2 -5 17 0 19 2 27 5 18 2 -10
2 -26 0 -35z m-1095 -75 c-7 -7 -12 -8 -12 -2 0 6 3 14 7 17 3 4 9 5 12 2 2
-3 -1 -11 -7 -17z m958 -42 c0 -17 -14 -29 -23 -20 -8 8 3 34 14 34 5 0 9 -6
9 -14z m-1010 -6 c0 -5 -5 -10 -11 -10 -5 0 -7 5 -4 10 3 6 8 10 11 10 2 0 4
-4 4 -10z m-254 -20 c44 0 45 -1 30 -21 -8 -12 -12 -27 -10 -34 3 -7 -5 -14
-21 -17 -21 -5 -25 -2 -20 13 5 15 3 17 -11 12 -12 -4 -15 -3 -10 6 4 7 -2 20
-16 32 -18 16 -19 19 -5 15 10 -3 39 -6 63 -6z m74 0 c0 -5 -5 -10 -11 -10 -5
0 -7 5 -4 10 3 6 8 10 11 10 2 0 4 -4 4 -10z m150 -29 c0 -5 -7 -11 -15 -15
-15 -5 -20 5 -8 17 9 10 23 9 23 -2z m30 -26 c-7 -9 -15 -13 -19 -10 -3 3 1
10 9 15 21 14 24 12 10 -5z m-914 -66 c18 -20 18 -20 -11 -13 -37 8 -39 10
-30 23 9 16 20 13 41 -10z m-61 -19 c7 -11 -9 -11 -45 0 -24 8 -24 8 7 9 17 1
35 -3 38 -9z m-17 -40 c28 0 48 -20 35 -34 -13 -12 -35 -6 -29 9 4 11 -1 14
-19 13 -19 -2 -24 -7 -19 -20 9 -28 -4 -21 -21 12 -20 38 -19 43 4 30 11 -5
33 -10 49 -10z m-121 -76 c19 -5 20 -7 6 -24 -9 -10 -23 -16 -31 -12 -8 3 -21
-3 -28 -13 -8 -10 -17 -15 -21 -11 -5 4 4 17 20 28 15 11 25 24 21 29 -6 10 2
11 33 3z m33 -44 c0 -5 -5 -10 -11 -10 -5 0 -7 5 -4 10 3 6 8 10 11 10 2 0 4
-4 4 -10z m-66 -49 c-5 -4 -25 -4 -44 0 l-35 6 33 2 c23 1 32 6 32 19 1 16 1
16 11 -1 6 -11 7 -22 3 -26z m-110 4 c-4 -8 -18 -15 -33 -15 l-26 0 25 14 c33
19 40 19 34 1z m373 -1 c-3 -3 -12 -4 -19 -1 -8 3 -5 6 6 6 11 1 17 -2 13 -5z"/>
<path d="M1955 3750 c3 -5 8 -10 11 -10 2 0 4 5 4 10 0 6 -5 10 -11 10 -5 0
-7 -4 -4 -10z"/>
<path d="M3310 3068 c0 -19 2 -20 10 -8 13 19 13 30 0 30 -5 0 -10 -10 -10
-22z"/>
<path d="M3510 2414 c0 -8 5 -12 10 -9 6 3 10 10 10 16 0 5 -4 9 -10 9 -5 0
-10 -7 -10 -16z"/>
<path d="M3513 2263 c-2 -37 7 -47 22 -27 17 22 19 38 5 29 -5 -3 -10 -1 -10
4 0 19 -17 12 -17 -6z"/>
<path d="M1892 2050 c0 -14 2 -19 5 -12 2 6 2 18 0 25 -3 6 -5 1 -5 -13z"/>
<path d="M3860 5781 c0 -10 -10 -25 -22 -33 -14 -10 -21 -25 -21 -46 0 -39 3
-43 31 -35 19 5 21 10 16 43 -6 38 -5 39 42 64 l49 25 -47 1 c-40 0 -48 -3
-48 -19z"/>
<path d="M4504 5769 c6 -32 27 -59 45 -59 6 0 11 20 11 45 0 44 -1 45 -31 45
-30 0 -31 -2 -25 -31z"/>
<path d="M4297 5773 c-10 -9 -8 -45 2 -62 5 -8 16 -11 29 -7 18 6 19 10 9 41
-10 33 -25 44 -40 28z"/>
<path d="M4065 5729 c-8 -47 -4 -53 24 -44 18 5 19 10 10 27 -6 11 -9 29 -6
39 3 12 0 19 -8 19 -8 0 -16 -17 -20 -41z"/>
<path d="M857 5744 c-8 -8 3 -65 15 -81 5 -7 26 -13 46 -15 31 -3 37 -7 44
-35 8 -30 24 -50 34 -41 2 3 -3 20 -12 38 -16 31 -16 34 1 47 11 7 25 13 32
13 22 0 14 14 -15 27 -15 7 -43 10 -64 7 -33 -6 -39 -4 -49 20 -12 26 -20 31
-32 20z"/>
<path d="M622 5693 c5 -30 55 -55 94 -47 49 9 42 24 -11 24 -34 0 -48 5 -57
20 -16 25 -30 26 -26 3z"/>
<path d="M4418 5680 c2 -17 16 -39 30 -50 27 -22 40 -24 60 -11 21 13 -6 61
-34 61 -12 0 -24 7 -28 15 -11 29 -33 17 -28 -15z"/>
<path d="M386 5691 c-11 -18 6 -41 31 -41 29 0 27 17 -4 37 -13 9 -23 10 -27
4z"/>
<path d="M275 5629 c-4 -5 1 -19 11 -30 16 -18 19 -18 27 -4 17 31 -20 65 -38
34z"/>
<path d="M4006 5608 c-11 -43 -4 -48 29 -24 16 12 17 16 6 30 -18 22 -28 20
-35 -6z"/>
<path d="M4240 5611 c0 -12 6 -21 16 -21 9 0 14 7 12 17 -5 25 -28 28 -28 4z"/>
<path d="M3771 5606 c-13 -15 -5 -46 13 -46 24 0 38 18 31 39 -7 24 -27 27
-44 7z"/>
<path d="M1041 5571 c-11 -7 -11 -13 0 -32 12 -23 12 -23 20 -4 16 41 9 54
-20 36z"/>
<path d="M4391 5551 c-17 -11 -6 -31 18 -31 25 0 33 11 20 27 -13 15 -19 16
-38 4z"/>
<path d="M3952 5508 c-19 -19 -14 -28 14 -28 18 0 25 5 22 17 -4 21 -21 26
-36 11z"/>
<path d="M1609 5488 c0 -2 -2 -12 -3 -23 -2 -11 -7 -33 -11 -49 -7 -26 -6 -28
16 -21 33 11 50 31 52 62 2 24 -2 28 -25 31 -16 2 -28 2 -29 0z"/>
<path d="M4513 5469 c-7 -7 -9 -24 -6 -39 5 -30 -6 -42 -41 -44 -17 -1 -21 -8
-22 -35 -1 -31 -18 -54 -46 -63 -5 -2 -6 -22 -2 -45 5 -34 13 -46 40 -62 36
-22 50 -56 39 -99 -3 -15 -17 -85 -31 -157 -54 -283 -64 -401 -40 -457 10 -24
23 -38 35 -38 36 0 81 -22 81 -40 0 -10 9 -20 20 -23 20 -5 20 0 20 554 0 532
-1 559 -18 559 -10 0 -23 -5 -29 -11z"/>
<path d="M1110 5460 c0 -5 5 -10 10 -10 6 0 10 5 10 10 0 6 -4 10 -10 10 -5 0
-10 -4 -10 -10z"/>
<path d="M3905 5427 c-21 -16 -13 -37 15 -37 19 0 34 25 24 41 -7 12 -17 11
-39 -4z"/>
<path d="M1661 5378 c-9 -24 -4 -48 9 -48 20 0 53 38 47 53 -9 25 -46 21 -56
-5z"/>
<path d="M1709 5309 c-1 -10 -2 -24 -3 -31 -1 -7 10 -15 24 -18 18 -4 26 -14
28 -33 3 -28 16 -35 28 -16 3 6 1 16 -5 22 -6 6 -11 25 -11 42 0 25 -6 33 -30
42 -27 10 -30 9 -31 -8z"/>
<path d="M1612 5309 c2 -6 8 -10 13 -10 5 0 11 4 13 10 2 6 -4 11 -13 11 -9 0
-15 -5 -13 -11z"/>
<path d="M4012 5259 c2 -6 8 -10 13 -10 5 0 11 4 13 10 2 6 -4 11 -13 11 -9 0
-15 -5 -13 -11z"/>
<path d="M3970 5170 c0 -19 20 -27 33 -13 8 7 -11 33 -24 33 -5 0 -9 -9 -9
-20z"/>
<path d="M1794 5145 c-4 -8 -3 -23 1 -32 6 -16 8 -15 20 7 7 14 11 28 9 32 -8
13 -24 9 -30 -7z"/>
<path d="M4043 5027 c-18 -18 -33 -43 -33 -55 0 -12 -4 -22 -9 -22 -5 0 -11
-11 -13 -25 -5 -25 -5 -25 36 8 44 37 86 92 86 113 0 24 -34 14 -67 -19z"/>
<path d="M4222 5025 c-30 -22 -63 -92 -53 -113 5 -10 15 -32 23 -51 l14 -34
23 96 c13 53 21 101 19 107 -2 6 -12 4 -26 -5z"/>
<path d="M975 5010 c-3 -5 1 -10 9 -10 9 0 16 5 16 10 0 6 -4 10 -9 10 -6 0
-13 -4 -16 -10z"/>
<path d="M1017 4973 c-3 -5 19 -31 49 -58 50 -46 67 -75 44 -75 -5 0 -19 9
-30 20 -11 11 -31 20 -45 20 -13 0 -28 7 -33 16 -5 9 -24 19 -43 23 -19 4 -34
12 -34 18 0 19 -23 36 -39 30 -22 -9 -20 -28 4 -34 11 -3 20 -11 20 -19 0 -7
13 -20 30 -29 19 -10 27 -20 24 -30 -8 -19 -20 -19 -27 -1 -3 7 -19 16 -36 19
-17 4 -40 16 -51 27 -11 11 -31 20 -45 20 -14 0 -29 8 -35 20 -6 12 -21 20
-35 20 -34 0 -31 -19 5 -31 19 -7 30 -18 30 -30 0 -12 10 -23 25 -29 14 -5 25
-16 25 -25 0 -21 -23 -19 -38 5 -8 13 -23 20 -45 20 -21 0 -36 7 -45 20 -7 12
-23 20 -38 20 -21 0 -25 -4 -22 -22 2 -15 10 -23 23 -23 13 0 21 -8 23 -22 4
-29 -24 -31 -31 -3 -4 16 -13 20 -49 20 -23 0 -50 -5 -58 -10 -8 -5 -10 -10
-5 -10 20 -1 -30 -30 -52 -30 -13 0 -23 -4 -23 -10 0 -14 -38 -12 -42 2 -6 17
-84 -6 -92 -27 -7 -19 -35 -19 -42 0 -10 26 -51 17 -74 -16 -12 -16 -20 -32
-18 -34 6 -6 265 -124 418 -190 156 -68 162 -68 365 4 77 27 210 74 295 104
266 93 412 151 417 164 13 33 -74 143 -112 143 -29 0 -25 -22 15 -68 43 -52
46 -82 6 -82 -15 0 -43 22 -81 63 -61 64 -155 126 -155 102 0 -7 7 -15 15 -19
8 -3 15 -12 15 -20 0 -8 8 -21 18 -28 30 -22 61 -69 55 -84 -11 -29 -28 -19
-146 89 -16 15 -36 27 -43 27 -8 0 -19 9 -26 20 -13 20 -43 27 -52 12 -2 -4
22 -36 55 -71 33 -35 59 -65 56 -67 -7 -7 -72 18 -93 37 -11 11 -25 19 -30 19
-5 0 -17 9 -27 20 -9 11 -24 20 -32 20 -9 0 -26 11 -38 24 -24 26 -62 41 -70
29z"/>
<path d="M580 4940 c0 -5 5 -10 11 -10 5 0 7 5 4 10 -3 6 -8 10 -11 10 -2 0
-4 -4 -4 -10z"/>
<path d="M1755 4910 c-8 -12 36 -70 50 -66 18 5 17 37 -1 57 -19 21 -39 25
-49 9z"/>
<path d="M12 4858 c-15 -15 -16 -65 -1 -74 7 -4 9 -21 5 -45 -7 -45 6 -51 35
-16 22 27 25 57 4 57 -16 0 -21 36 -6 42 4 2 12 13 15 26 6 18 4 22 -16 22
-13 0 -29 -5 -36 -12z"/>
<path d="M415 4830 c-7 -12 22 -12 50 0 17 7 15 9 -12 9 -17 1 -35 -3 -38 -9z"/>
<path d="M90 4770 c0 -5 7 -10 16 -10 8 0 12 5 9 10 -3 6 -10 10 -16 10 -5 0
-9 -4 -9 -10z"/>
<path d="M17 4632 c-15 -16 -17 -46 -17 -218 l0 -200 30 -22 c34 -26 56 -20
84 23 9 14 23 25 31 25 9 0 34 9 58 19 23 10 56 24 72 29 40 14 137 55 153 65
20 13 14 45 -10 58 -13 6 -32 20 -43 30 -11 9 -45 31 -75 47 -164 89 -190 104
-197 116 -9 13 -53 46 -64 46 -3 0 -13 -8 -22 -18z"/>
<path d="M4116 4145 c-8 -8 -18 -15 -23 -15 -4 0 -21 -12 -38 -28 -16 -15 -42
-33 -57 -41 -15 -8 -30 -21 -33 -30 -6 -18 -76 -61 -99 -61 -8 0 -34 -18 -57
-40 -23 -22 -46 -40 -51 -40 -4 0 -8 -7 -8 -16 0 -9 -9 -18 -20 -21 -10 -3
-22 -13 -25 -23 -3 -9 -23 -22 -45 -29 -23 -7 -38 -16 -35 -21 4 -6 -3 -10
-14 -10 -12 0 -21 -5 -21 -10 0 -6 -3 -9 -7 -8 -20 5 -178 -91 -231 -141 -18
-17 -40 -31 -48 -31 -8 0 -14 -4 -14 -10 0 -5 -10 -10 -22 -10 -13 0 -39 -14
-58 -30 -19 -16 -40 -30 -47 -30 -16 0 -36 -37 -28 -51 4 -6 -3 -8 -17 -6 -12
2 -17 2 -10 0 9 -3 10 -9 3 -16 -7 -9 7 -12 52 -12 48 0 72 -6 107 -26 25 -14
63 -36 85 -49 22 -12 57 -29 78 -36 48 -17 122 -68 169 -116 35 -36 37 -37 54
-21 17 17 17 17 12 -5 -5 -18 -3 -22 9 -18 8 3 24 6 36 7 21 0 21 1 -2 10 -30
12 -15 32 27 35 15 1 32 2 38 3 17 2 27 33 13 41 -7 5 -1 15 16 28 15 12 24
25 21 30 -13 22 58 62 111 61 33 0 93 -16 69 -18 -6 -1 7 -17 28 -35 21 -20
42 -51 47 -71 11 -40 27 -50 63 -41 17 4 26 15 31 36 6 29 25 52 25 31 0 -19
75 -13 93 7 21 23 21 32 2 32 -26 0 -17 16 25 45 31 21 39 32 34 49 -3 15 1
24 18 31 13 6 27 24 33 43 5 17 15 32 22 32 9 0 11 8 7 24 -4 18 -1 25 15 29
27 7 27 37 1 44 -11 3 -20 11 -20 19 0 7 -14 21 -31 29 -42 22 -99 5 -99 -30
0 -12 -7 -25 -15 -29 -8 -3 -15 -15 -15 -26 0 -13 -7 -20 -19 -20 -11 0 -27
-10 -36 -22 -17 -23 -17 -22 -11 15 4 23 3 37 -3 37 -7 0 -8 21 -5 59 5 40 2
74 -9 107 -10 32 -17 107 -20 219 -7 205 -13 228 -51 190z m-481 -945 c13 -5
14 -9 5 -9 -8 0 -24 4 -35 9 -13 5 -14 9 -5 9 8 0 24 -4 35 -9z"/>
<path d="M2655 3740 c-3 -5 -1 -10 4 -10 6 0 11 5 11 10 0 6 -2 10 -4 10 -3 0
-8 -4 -11 -10z"/>
<path d="M2677 3576 c-4 -10 -5 -21 -2 -24 9 -9 17 6 13 25 -3 17 -4 17 -11
-1z"/>
<path d="M2731 3564 c0 -11 3 -14 6 -6 3 7 2 16 -1 19 -3 4 -6 -2 -5 -13z"/>
<path d="M3725 3120 c-3 -5 -1 -10 4 -10 6 0 11 5 11 10 0 6 -2 10 -4 10 -3 0
-8 -4 -11 -10z"/>
<path d="M4471 2976 c-18 -18 -33 -40 -35 -47 -5 -32 -44 -122 -103 -236 -35
-67 -63 -131 -63 -142 0 -19 71 -91 90 -91 16 0 64 123 112 290 17 58 34 107
37 110 11 8 31 85 31 119 0 42 -26 41 -69 -3z"/>
<path d="M2220 1570 c-8 -5 -12 -12 -9 -15 8 -8 39 5 39 16 0 11 -11 11 -30
-1z"/>
<path d="M1820 1480 c0 -5 9 -10 20 -10 11 0 20 5 20 10 0 6 -9 10 -20 10 -11
0 -20 -4 -20 -10z"/>
<path d="M2152 1479 c-13 -5 -21 -13 -18 -18 7 -10 56 9 56 22 0 9 -9 8 -38
-4z"/>
<path d="M3367 1483 c-4 -3 -7 -11 -7 -17 0 -6 5 -5 12 2 6 6 9 14 7 17 -3 3
-9 2 -12 -2z"/>
<path d="M3456 1475 c-18 -13 -17 -14 8 -21 21 -5 32 -1 47 15 l20 21 -28 0
c-15 0 -36 -7 -47 -15z"/>
<path d="M3618 1443 c7 -3 16 -2 19 1 4 3 -2 6 -13 5 -11 0 -14 -3 -6 -6z"/>
<path d="M1575 1430 c27 -12 35 -12 35 0 0 6 -12 10 -27 9 -25 0 -26 -1 -8 -9z"/>
<path d="M420 1353 c0 -27 -8 -29 -25 -7 -10 14 -12 13 -12 -12 0 -16 -2 -36
-4 -44 -6 -23 37 -24 60 -1 21 21 29 81 11 81 -5 0 -10 -6 -10 -12 0 -9 -4 -8
-10 2 -8 12 -10 11 -10 -7z"/>
<path d="M761 1314 c0 -11 3 -14 6 -6 3 7 2 16 -1 19 -3 4 -6 -2 -5 -13z"/>
<path d="M3160 1311 c0 -5 5 -13 10 -16 6 -3 10 -2 10 4 0 5 -4 13 -10 16 -5
3 -10 2 -10 -4z"/>
<path d="M3330 1300 c8 -5 20 -10 25 -10 6 0 3 5 -5 10 -8 5 -19 10 -25 10 -5
0 -3 -5 5 -10z"/>
<path d="M3232 1288 c2 -6 10 -14 16 -16 7 -2 10 2 6 12 -7 18 -28 22 -22 4z"/>
<path d="M3472 1282 c5 -19 2 -22 -23 -22 -16 0 -29 -4 -29 -9 0 -10 40 -19
58 -13 15 5 16 49 0 58 -8 5 -9 0 -6 -14z"/>
<path d="M757 1273 c-6 -17 -16 -23 -40 -23 -23 0 -28 -3 -20 -11 16 -16 93
-22 123 -10 24 9 23 10 -12 10 -32 1 -37 4 -40 29 -3 26 -4 26 -11 5z"/>
<path d="M3384 1277 c-3 -8 4 -32 15 -53 27 -50 27 -54 -10 -54 -37 0 -35 -18
4 -40 46 -26 77 9 62 68 -5 19 -9 22 -15 13 -6 -10 -12 -6 -24 18 -9 17 -14
36 -11 41 3 5 1 11 -5 15 -6 3 -13 0 -16 -8z"/>
<path d="M630 1229 c0 -39 63 -93 91 -79 31 17 9 48 -30 42 -27 -4 -33 0 -46
29 -14 33 -14 33 -15 8z"/>
<path d="M420 1190 c8 -5 24 -10 35 -10 17 0 17 2 5 10 -8 5 -24 10 -35 10
-17 0 -17 -2 -5 -10z"/>
<path d="M340 1182 c0 -15 59 -52 65 -42 3 6 -1 10 -9 10 -9 0 -21 9 -28 20
-13 20 -28 27 -28 12z"/>
<path d="M773 1155 c-3 -9 -3 -19 1 -22 8 -9 37 18 30 28 -8 14 -24 11 -31 -6z"/>
<path d="M258 1043 c7 -3 16 -2 19 1 4 3 -2 6 -13 5 -11 0 -14 -3 -6 -6z"/>
<path d="M116 955 c-3 -8 -1 -15 4 -15 6 0 10 7 10 15 0 8 -2 15 -4 15 -2 0
-6 -7 -10 -15z"/>
<path d="M75 840 c3 -5 8 -10 11 -10 2 0 4 5 4 10 0 6 -5 10 -11 10 -5 0 -7
-4 -4 -10z"/>
<path d="M2585 800 c-3 -5 1 -10 10 -10 9 0 13 5 10 10 -3 6 -8 10 -10 10 -2
0 -7 -4 -10 -10z"/>
<path d="M2078 783 c6 -2 18 -2 25 0 6 3 1 5 -13 5 -14 0 -19 -2 -12 -5z"/>
<path d="M2250 770 c20 -13 33 -13 25 0 -3 6 -14 10 -23 10 -15 0 -15 -2 -2
-10z"/>
<path d="M2560 740 c0 -5 5 -10 10 -10 6 0 10 5 10 10 0 6 -4 10 -10 10 -5 0
-10 -4 -10 -10z"/>
<path d="M2590 736 c0 -9 30 -14 35 -6 4 6 -3 10 -14 10 -12 0 -21 -2 -21 -4z"/>
<path d="M2640 736 c0 -2 9 -6 20 -9 11 -3 18 -1 14 4 -5 9 -34 13 -34 5z"/>
<path d="M2973 733 c9 -2 23 -2 30 0 6 3 -1 5 -18 5 -16 0 -22 -2 -12 -5z"/>
<path d="M2728 718 c9 -9 15 -9 24 0 9 9 7 12 -12 12 -19 0 -21 -3 -12 -12z"/>
<path d="M2945 710 c-3 -6 -3 -10 2 -11 73 -4 93 -4 93 3 0 4 -10 8 -22 9 -13
0 -33 2 -45 5 -12 2 -25 -1 -28 -6z"/>
<path d="M3108 693 c6 -2 18 -2 25 0 6 3 1 5 -13 5 -14 0 -19 -2 -12 -5z"/>
<path d="M2601 674 c0 -11 3 -14 6 -6 3 7 2 16 -1 19 -3 4 -6 -2 -5 -13z"/>
<path d="M3203 683 c9 -2 25 -2 35 0 9 3 1 5 -18 5 -19 0 -27 -2 -17 -5z"/>
<path d="M3278 673 c7 -3 16 -2 19 1 4 3 -2 6 -13 5 -11 0 -14 -3 -6 -6z"/>
<path d="M3318 673 c7 -3 16 -2 19 1 4 3 -2 6 -13 5 -11 0 -14 -3 -6 -6z"/>
<path d="M3430 610 c0 -5 14 -10 32 -10 36 0 35 4 -4 14 -17 4 -28 2 -28 -4z"/>
<path d="M3510 600 c0 -4 66 -12 148 -19 235 -19 455 -41 482 -48 l25 -6 -25
-7 c-24 -8 -23 -8 7 -9 17 -1 35 4 38 9 6 10 130 7 215 -6 22 -4 31 -2 25 4
-5 5 -68 17 -140 25 -130 16 -160 19 -460 37 -88 5 -171 12 -185 15 -44 9
-130 13 -130 5z"/>
<path d="M2900 596 c0 -2 7 -7 16 -10 8 -3 12 -2 9 4 -6 10 -25 14 -25 6z"/>
<path d="M3037 579 c7 -7 15 -10 18 -7 3 3 -2 9 -12 12 -14 6 -15 5 -6 -5z"/>
<path d="M3268 553 c7 -3 16 -2 19 1 4 3 -2 6 -13 5 -11 0 -14 -3 -6 -6z"/>
<path d="M3848 543 c7 -3 16 -2 19 1 4 3 -2 6 -13 5 -11 0 -14 -3 -6 -6z"/>
<path d="M3057 504 c-8 -8 1 -24 14 -24 5 0 9 7 9 15 0 15 -12 20 -23 9z"/>
<path d="M3753 503 c9 -2 23 -2 30 0 6 3 -1 5 -18 5 -16 0 -22 -2 -12 -5z"/>
<path d="M3828 493 c7 -3 16 -2 19 1 4 3 -2 6 -13 5 -11 0 -14 -3 -6 -6z"/>
<path d="M3872 495 c9 -9 191 -36 210 -32 9 3 50 -1 90 -7 77 -13 206 -20 197
-11 -3 2 -88 14 -190 24 -259 28 -314 33 -307 26z"/>
<path d="M3017 413 c-4 -3 -7 -13 -7 -22 1 -13 3 -13 11 2 11 19 8 33 -4 20z"/>
<path d="M3115 370 c-3 -5 -1 -10 4 -10 6 0 11 5 11 10 0 6 -2 10 -4 10 -3 0
-8 -4 -11 -10z"/>
<path d="M4248 70 c-14 -11 -28 -31 -30 -45 l-5 -25 135 0 c153 0 157 5 49 59
-72 36 -114 39 -149 11z"/>
</g>
</svg>
